<?xml version="1.0" encoding="utf-8"?>
<!-- Generator: Adobe Illustrator 18.1.1, SVG Export Plug-In . SVG Version: 6.00 Build 0)  -->
<!DOCTYPE svg PUBLIC "-//W3C//DTD SVG 1.1//EN" "http://www.w3.org/Graphics/SVG/1.1/DTD/svg11.dtd">
<svg version="1.1" id="Layer_1" xmlns="http://www.w3.org/2000/svg" xmlns:xlink="http://www.w3.org/1999/xlink" x="0px" y="0px"
	 viewBox="74.1 197.1 810.7 165.6" enable-background="new 74.1 197.1 810.7 165.6" xml:space="preserve">
<path fill="#999999" d="M239.8,252.4h-55l0,0l0,0c0,0,53.1-53.1,55.3-55.3H129.4c-30.5,0-55,24.8-55,55.3l0,0c0,1.2,0,55,0,55h51.3
	c1.2,0,2.5,0,3.7,0l0,0v-55h55.3v55l0,0h-55.3l-55.3,55.3h110.3l0,0c30.5,0,55-24.8,55-55.3C239.8,306.9,239.8,252.4,239.8,252.4z"
	/>
<path fill="#999999" d="M321.6,250.4c-8.9,0-18.3,3.5-18.3,11.9c0,7.4,8.7,9.7,18.8,11.4c13.9,2.2,27.5,5,27.5,20.6
	s-14.9,20.6-28.3,20.6c-12.4,0-24-4.5-29.3-16.1l7.2-4.2c4.5,8.2,13.9,12.1,22.3,12.1c8.4,0,19.6-2.7,19.6-12.9
	c0-8.7-9.7-11.2-20.1-12.6c-13.4-2-26.3-5.2-26.3-19.3c-0.2-14.4,14.6-19.3,26.5-19.3c10.4,0,20.1,2,26.3,12.6l-6.4,4
	C337.2,253.1,329.3,250.4,321.6,250.4z"/>
<path fill="#999999" d="M371.2,244.4v-0.2h10.4l20.8,33l21.3-33h10.4v0.2l-27.3,40.9v28.3h-8.9v-28.3L371.2,244.4z"/>
<path fill="#999999" d="M468.3,243.9L511,297v-53.1h8.4v69.4h-6l-42.6-53.1v53.1h-8.4v-69.4C462.4,243.9,468.3,243.9,468.3,243.9z"
	/>
<path fill="#999999" d="M588.1,243.9l31.2,69.4h-9.4L603,298h-39.7l-6.7,15.4h-9.4l31.2-69.4C578.4,243.9,588.1,243.9,588.1,243.9z
	 M583.1,252.9l-16.4,37.4h33L583.1,252.9z"/>
<path fill="#999999" d="M676.1,314.6c-24.5,0-36.2-16.9-36.2-35.5c-0.2-18.3,11.9-36.2,36.2-36.2c9.2,0,18.3,3.5,25.3,10.4l-6,5.5
	c-5.5-5.2-12.4-7.7-19.3-7.7c-18.6,0-27.8,13.4-27.5,27.8c0.2,14.1,8.9,27.3,27.5,27.3c6.9,0,14.4-2.7,19.8-7.9l6,6
	C695,311.1,685.8,314.6,676.1,314.6z"/>
<path fill="#999999" d="M796.1,278.9c0,18.1-11.4,36-35.2,36c-23.8,0-35.2-17.6-35.2-36c0-20.1,13.4-36.2,35.5-36.2
	C784.5,242.9,796.1,260.5,796.1,278.9z M760.9,250.9c-17.6,0-26.8,12.9-26.8,28.3c0,14.1,8.4,27.8,26.8,27.8s26.5-14.1,26.5-27.8
	C787.4,264.8,779,250.9,760.9,250.9z"/>
<path fill="#999999" d="M852.4,288.6h-16.9v25h-8.7v-69.4h31.5c15.6,0,23.6,10.9,23.6,22.3c0,10.4-5.7,20.3-19.8,21.6l22.8,25.8H874
	L852.4,288.6z M873.5,266.5c0-6.9-5-14.6-14.9-14.6h-23.1v29h22.6C868.5,280.6,873.5,274.2,873.5,266.5z"/>
</svg>
